<?xml version="1.0" encoding="UTF-8"?>
<svg id="Layer_2" data-name="Layer 2" xmlns="http://www.w3.org/2000/svg" viewBox="0 0 293.13 293.15">
  <defs>
    <style>
      .cls-1 {
        fill: #fff;
        stroke: #fff;
        stroke-miterlimit: 10;
      }
    </style>
  </defs>
  <g id="Layer_1-2" data-name="Layer 1">
    <path class="cls-1" d="M285.55,101.67v-.02s0-.02-.02-.04l-19.83-19.83-12.27,12.27-54.43,54.43h-54.6v-54.58L211.03,27.28l-19.77-19.77c-.06-.04-.11-.06-.17-.06-14.05-4.52-29-6.95-44.52-6.95C66.03.5.5,66.03.5,146.59s65.53,146.07,146.07,146.07,146.07-65.53,146.07-146.07c0-15.67-2.47-30.76-7.08-44.92ZM146.57,265.63c-65.74,0-119.04-53.3-119.04-119.04S80.83,27.52,146.57,27.52c7.64,0,15.1.73,22.33,2.11l-2.07,2.07-50.55,50.55v94.35l94.37-.15,52.78-52.69c1.44,7.39,2.18,15.02,2.18,22.83,0,65.74-53.3,119.04-119.06,119.04Z"/>
  </g>
</svg>