<?xml version="1.0" encoding="UTF-8"?>
<svg id="Layer_2" data-name="Layer 2" xmlns="http://www.w3.org/2000/svg" viewBox="0 0 494.09 329.23">
  <defs>
    <style>
      .cls-1 {
        stroke-width: 0px;
      }

      .cls-1, .cls-2 {
        fill: #fff;
      }

      .cls-2 {
        stroke: #fff;
        stroke-miterlimit: 10;
      }
    </style>
  </defs>
  <g id="Layer_1-2" data-name="Layer 1">
    <path class="cls-1" d="M458.9,145.76c3.4,5.34,5.34,10.68,5.34,16.99s-1.94,12.62-5.34,17.96l-105.32,148.52h38.1l90.28-127.65c8.25-11.16,12.13-24.27,12.13-38.83s-3.88-27.18-12.13-38.34L391.2,0h-37.62l105.32,145.76Z"/>
    <path class="cls-1" d="M35.19,145.76c-3.4,5.34-5.34,10.68-5.34,16.99s1.94,12.62,5.34,17.96l105.32,148.52h-38.1L12.13,201.58C3.88,190.42,0,177.31,0,162.75s3.88-27.18,12.13-38.34L102.89,0h37.62L35.19,145.76Z"/>
    <path class="cls-2" d="M386.03,125.29v-.02s0-.02-.02-.04l-19.83-19.83-12.27,12.27-54.43,54.43h-54.6v-54.58l66.62-66.62-19.77-19.77c-.06-.04-.11-.06-.17-.06-14.05-4.52-29-6.95-44.52-6.95-80.54,0-146.07,65.53-146.07,146.09s65.53,146.07,146.07,146.07,146.07-65.53,146.07-146.07c0-15.67-2.47-30.76-7.08-44.92ZM247.04,289.25c-65.74,0-119.04-53.3-119.04-119.04s53.3-119.06,119.04-119.06c7.64,0,15.1.73,22.33,2.11l-2.07,2.07-50.55,50.55v94.35l94.37-.15,52.78-52.69c1.44,7.39,2.18,15.02,2.18,22.83,0,65.74-53.3,119.04-119.06,119.04Z"/>
  </g>
</svg>