<?xml version="1.0" encoding="UTF-8"?>
<svg id="Layer_2" data-name="Layer 2" xmlns="http://www.w3.org/2000/svg" viewBox="0 0 309.52 309.52">
  <defs>
    <style>
      .cls-1 {
        fill: #b82481;
      }

      .cls-1, .cls-2, .cls-3, .cls-4 {
        stroke-width: 0px;
      }

      .cls-2 {
        fill: #fbad55;
      }

      .cls-3 {
        fill: #5c327f;
      }

      .cls-4 {
        fill: #095297;
      }
    </style>
  </defs>
  <g id="Layer_1-2" data-name="Layer 1">
    <g>
      <path class="cls-4" d="M224.51,239.36c-.89,1.4-1.4,2.81-1.4,4.47s.51,3.32,1.4,4.72l28.48,40.18h-11.87l-24.52-34.69c-2.17-2.94-3.19-6.38-3.19-10.21s1.02-7.15,3.19-10.08l24.65-34.82h11.74l-28.48,40.43Z"/>
      <path class="cls-4" d="M277.73,210.01c.89,1.4,1.4,2.81,1.4,4.47s-.51,3.32-1.4,4.72l-27.69,39.05h11.87l23.74-33.57c2.17-2.94,3.19-6.38,3.19-10.21s-1.02-7.15-3.19-10.08l-23.26-32.71h-11.74l27.09,38.33Z"/>
      <path class="cls-2" d="M187.27,202.86c0,5-1.02,9.61-3.03,13.76-1.99-3.05-4.32-5.91-6.99-8.51,0-.01-.02-.02-.03-.03.4-1.67.6-3.41.6-5.23,0-6-2.17-11.35-6.38-15.57-4.21-4.09-9.44-6.26-15.44-6.26H40.88c-6.55,0-11.86,5.31-11.86,11.86v30c0,1.28.65,1.91,1.8,1.91h125.18c3.12,0,6.03-.63,8.7-1.8,2.18,2.34,3.99,5.02,5.35,7.97-4.24,2.15-8.92,3.27-14.05,3.27H30.82c-.99,0-1.79.8-1.79,1.79v52.68h-9.45v-95.94c0-11.85,9.64-21.11,21.48-21.11h114.96c8.68,0,16.05,2.85,22.17,8.97,6,6.13,9.06,13.53,9.06,22.21Z"/>
      <path class="cls-4" d="M187.33,242.7h0c-.6-24.24-20.59-43.77-44.97-43.77h-53.36c-15.99,0-30.31,8.25-38.46,20.83h11.65c6.49-7.05,15.8-11.48,26.14-11.48h54.01c19.25,0,34.92,15.31,35.52,34.42h0l-.1,4.02c-1.47,18.28-16.76,32.65-35.42,32.65h-54.01c-19.63,0-35.54-15.91-35.54-35.54h0c0-1.53.11-3.04.3-4.52h-9.42c-.08.78-.15,1.56-.18,2.36-1.21,25.74,19.37,47.06,44.85,47.06h54.01c13.53,0,25.67-6.02,33.91-15.51.52-.6,1.62-.24,1.62.56l-.09,14.96h9.44l.09-44.34c0-.19.01-.37.01-.56s-.01-.37-.01-.56v-.57Z"/>
      <path class="cls-2" d="M44.12,83.29h9.53c.21,0,.42.05.62.12h117.1c-1.13-3.52-2.88-6.75-5.12-9.57H59.6s0,0,0,0c0,0,0,0,0,0h-28.73c-1.28,0-1.91-.64-1.91-1.91v-28.59c0-7.27,5.87-15.25,13.4-15.25h144.91v-9.37H42.34c-6.38,0-12.1,3.18-16.57,7.78-4.47,4.47-6.19,10.47-6.19,16.85v94.42h9.36v-52.69c0-1.02.64-1.66,1.91-1.66h12.62c.2-.08.42-.12.65-.12Z"/>
      <path class="cls-4" d="M187.25,92.29v-.57h-.01c-.6-24.24-20.49-43.77-44.87-43.77h-53.36c-15.98,0-30.29,8.24-38.45,20.82h11.67c6.49-7.05,15.79-11.46,26.12-11.46h54.01c19.25,0,34.92,15.31,35.52,34.42h0l-.1,4.02c-1.47,18.28-16.76,32.65-35.42,32.65h-54.01c-19.63,0-35.54-15.91-35.54-35.54h0c0-1.53.11-3.02.3-4.5h-.03s-8.38-.01-8.38-.01l-.31.12h-.71c-.07.74-.14,1.48-.17,2.23-1.21,25.74,19.37,47.06,44.85,47.06h54.01c13.53,0,25.67-6.02,33.91-15.51.52-.6,1.62-.24,1.62.56v14.96h9.36v-44.34c0-.19.01-.37.01-.56s-.01-.37-.01-.56Z"/>
      <rect class="cls-2" x="198.9" y="171.68" width="9.4" height="117.05"/>
      <path class="cls-4" d="M287.53,81.45h0s-6.63-6.63-6.63-6.63l-23.17,23.17-19.23-.05v-19.31s23.08-23.08,23.08-23.08l-6.62-6.61c-3.53-.86-7.24-1.28-11.16-1.28-11.97,0-22.12,4.05-30.43,11.97v14.64c1.45-2.35,3.21-4.59,5.29-6.7,7.02-7.02,15.44-10.34,25.15-10.34.94,0,1.86.03,2.77.09l-17.43,17.43v32.55h32.55v-.05l.03.03,17.57-17.57c.08.98.12,1.99.12,3,0,9.83-3.45,18-10.47,25.02-6.89,7.02-15.32,10.34-25.14,10.34s-18.13-3.32-25.15-10.34c-2.08-2.12-3.83-4.34-5.29-6.68v14.97c8.54,7.83,18.8,11.75,30.43,11.75,12.5,0,22.97-4.34,31.91-13.28,8.81-8.81,13.14-19.4,13.14-31.78,0-3.93-.44-7.68-1.31-11.25Z"/>
      <rect class="cls-2" x="198.9" y="18.71" width="9.4" height="119.04"/>
      <rect class="cls-1" x="19.58" y="150.08" width="269.25" height="9.36"/>
      <path class="cls-3" d="M0,0v309.52h309.52V0H0ZM300.17,300.17H9.36V9.36h290.81v290.81Z"/>
    </g>
  </g>
</svg>