<?xml version="1.0" encoding="UTF-8"?>
<svg id="Layer_2" data-name="Layer 2" xmlns="http://www.w3.org/2000/svg" viewBox="0 0 377.65 377.65">
  <defs>
    <style>
      .cls-1 {
        fill: #231f20;
        stroke-width: 0px;
      }
    </style>
  </defs>
  <g id="Layer_1-2" data-name="Layer 1">
    <g>
      <rect class="cls-1" x="23.89" y="183.12" width="328.53" height="11.42"/>
      <g>
        <path class="cls-1" d="M42.1,112.87c.2,1.98.55,3.92.96,5.83.46.91,1.06,1.75,1.82,2.47l.11.11.11.11c1.7,1.79,4.05,2.78,6.6,2.78h4.49c-2.26-5.6-3.51-11.71-3.51-18.11,0-3.18.28-6.32.87-9.32l21.47,21.43,38.38.06.02-41.03-19.23-19.23-.84-.84c2.94-.56,5.98-.86,9.08-.86,23.02,0,42.28,16.08,47.19,37.62v-25.23c-10.87-14.2-27.97-23.38-47.19-23.38-6.31,0-12.39.99-18.11,2.83-.02,0-.05,0-.07.02l-8.04,8.04,25.77,25.77v24.89h-22.21l-22.14-22.14-4.99-4.99-8.06,8.06s0,0,0,.02h0c-1.88,5.77-2.88,11.9-2.88,18.28,0,.79.01,1.57.06,2.35.06,1.12.23,3.35.34,4.46Z"/>
        <path class="cls-1" d="M138.39,147.86h-12.88c-4.7,2.75-9.9,4.73-15.43,5.76.73,1.74,1.13,3.65,1.13,5.65s-.36,3.78-1.03,5.49c13.03-2.01,24.67-8.27,33.47-17.31-1.71.27-3.47.41-5.26.41Z"/>
        <path class="cls-1" d="M81.45,159.28c0-2.95.87-5.69,2.36-8-2.48-.95-4.86-2.09-7.12-3.42h-17.75c6.34,6.39,14.11,11.34,22.79,14.34-.19-.95-.29-1.92-.29-2.92Z"/>
      </g>
      <path class="cls-1" d="M166.03,113.95c0,15.61-12.58,27.74-27.74,27.74H51.02c-15.01.01-27.13-12.16-27.13-27.17h11.37c0,4.24,1.67,8.18,4.7,11.06,2.88,3.03,6.82,4.7,11.06,4.7l87.52-.15c8.64,0,16.07-7.27,16.07-16.22v-44.36s11.41-.01,11.41-.01v44.41ZM105.05,159.28c0,2.43-.91,4.55-2.58,6.21-1.67,1.67-3.79,2.58-6.21,2.58-4.7,0-8.64-3.94-8.64-8.79s3.94-8.64,8.64-8.64,8.79,3.94,8.79,8.64Z"/>
      <path class="cls-1" d="M346.47,113.65c-1.81-2.88-4.09-5.61-7.27-8.18-5.18-4.21-11.12-6.98-17.99-8.26-.4.52-.82,1.02-1.3,1.5-2.77,2.77-6.32,4.24-10.27,4.24s-7.66-1.47-10.42-4.24c-.39-.38-.74-.79-1.08-1.2-6.23,1.31-11.75,3.83-16.39,7.8-3.03,2.42-5.3,5.46-7.27,8.34-4.39,6.82-6.36,14.1-5.91,22.13.46,8.18,3.45,15.25,8.91,20.87h-85.31c-1.51,0-2.34-.87-2.34-2.38V22.83h-11.42v145.24h134.56c13.34,0,23.49-3.79,30.62-11.52,5.3-5.61,8.34-12.58,8.79-20.76.46-8.04-1.67-15.31-5.91-22.13ZM334.65,148.82c-5.31,5.15-12.73,7.73-22.59,7.73h-3.18c-9.85,0-17.28-2.73-22.59-7.73-4.55-4.55-6.82-10-6.36-16.67.45-6.52,3.03-12.12,8.03-16.67,5.61-5.15,12.58-7.73,20.92-7.73h3.18c8.49,0,15.46,2.58,20.92,7.73,5,4.55,7.72,10.16,8.18,16.67.45,6.67-1.82,12.28-6.52,16.67Z"/>
      <path class="cls-1" d="M315.55,82.23c1.67,1.67,2.58,3.79,2.58,6.06s-.91,4.4-2.58,6.06c-1.67,1.67-3.64,2.43-5.91,2.43s-4.4-.76-6.06-2.43c-1.67-1.67-2.58-3.79-2.58-6.06s.91-4.4,2.58-6.06c1.67-1.67,3.79-2.42,6.06-2.42s4.24.76,5.91,2.42Z"/>
      <path class="cls-1" d="M341,276.51v34.21c0,4.4-1.51,8.34-4.7,11.52-3.19,3.18-6.99,4.82-11.39,4.82l-132.73.02c-1.51,0-2.36-.88-2.36-2.39v-115.22h-11.42v129.02h142.23c.74-2,1.9-3.85,3.47-5.42,2.83-2.83,6.53-4.38,10.42-4.38,3.16,0,6.07.93,8.56,2.7.38-.35.76-.71,1.14-1.08,5.45-5.46,8.18-11.82,8.18-19.56v-34.21l-11.42-.02Z"/>
      <path class="cls-1" d="M340.75,337.42c1.67,1.67,2.58,3.79,2.58,6.06,0,2.43-.91,4.55-2.58,6.21-1.67,1.67-3.79,2.58-6.21,2.58-2.27,0-4.4-.91-6.06-2.58-1.67-1.67-2.58-3.79-2.58-6.21,0-2.27.91-4.4,2.58-6.06s3.79-2.58,6.06-2.58c2.43,0,4.55.91,6.21,2.58Z"/>
      <g>
        <path class="cls-1" d="M65.71,338.48l-14.64.02c-4.24,0-8.19-1.67-11.06-4.7-3.03-2.88-4.7-6.82-4.7-11.06h-11.41c0,15.01,12.12,27.16,27.12,27.16h22.73l-8.04-11.42Z"/>
        <path class="cls-1" d="M154.61,209.46l-.04,113.1c0,8.94-7.43,15.91-15.91,15.91l-43.51.08,8.12,11.34h35.29c14.7,0,27.43-12.74,27.43-27.44l.03-113h-11.42Z"/>
      </g>
      <path class="cls-1" d="M138.49,250.74l-29.38-41.29h-14.49s34.05,48.14,34.05,48.14c1.09,1.71,1.84,3.43,1.84,5.45s-2.19,4.05-3.28,5.76l-14.44,20.36v13.93h-9.88l-9.47,13.36h14.48l28.96-40.95c2.65-3.58,5.46-7.79,5.46-12.46s-1.21-8.72-3.86-12.31Z"/>
      <path class="cls-1" d="M60.63,298.87c0-2.02.62-3.74,1.71-5.45l10.77-15.25c-.04-3.67.81-7.16,2.55-10.29,2.45-4.37,6.38-7.61,11.48-9.58l8.52-12.07h-14.44l-28.65,40.33c-2.65,3.58-3.89,7.79-3.89,12.3s2.88,8.88,5.53,12.46l28.96,40.95h14.48l-33.79-47.65c-1.09-1.71-3.23-3.74-3.23-5.76Z"/>
      <path class="cls-1" d="M106.08,269.71c-9.02-1.48-14.6.33-16.89,5.25-2.62,5.41.66,12.96,8.53,14.93h9.68v7.05h-28.7v-7.05h5.08c-9.35-15.25-1.15-29.85,22.31-27.39v7.22Z"/>
      <path class="cls-1" d="M0,0v377.65h377.65V0H0ZM366.23,366.24H11.42V11.42h354.82v354.82Z"/>
    </g>
  </g>
</svg>