<?xml version="1.0" encoding="UTF-8"?>
<svg id="Layer_2" data-name="Layer 2" xmlns="http://www.w3.org/2000/svg" viewBox="0 0 309.52 309.52">
  <defs>
    <style>
      .cls-1 {
        fill: #b82481;
      }

      .cls-1, .cls-2, .cls-3, .cls-4 {
        stroke-width: 0px;
      }

      .cls-2 {
        fill: #fbad55;
      }

      .cls-3 {
        fill: #5c327f;
      }

      .cls-4 {
        fill: #095297;
      }
    </style>
  </defs>
  <g id="Layer_1-2" data-name="Layer 1">
    <g>
      <rect class="cls-1" x="19.58" y="150.08" width="269.26" height="9.36"/>
      <g>
        <path class="cls-4" d="M34.51,92.5c.16,1.62.45,3.21.79,4.78.37.75.87,1.43,1.49,2.02l.09.09.09.09c1.4,1.47,3.32,2.28,5.41,2.28h3.68c-1.85-4.59-2.88-9.6-2.88-14.84,0-2.6.23-5.18.71-7.64l17.6,17.56,31.46.05.02-33.62-15.76-15.76-.69-.69c2.41-.46,4.9-.7,7.45-.7,18.87,0,34.65,13.18,38.68,30.83v-20.67c-8.91-11.64-22.93-19.16-38.68-19.16-5.17,0-10.16.81-14.84,2.32-.02,0-.04,0-.06.02l-6.59,6.59,21.12,21.12v20.4h-18.2l-18.14-18.14-4.09-4.09-6.61,6.61s0,0,0,.01h0c-1.54,4.73-2.36,9.75-2.36,14.98,0,.65.01,1.29.05,1.93.05.92.19,2.75.28,3.66Z"/>
        <path class="cls-4" d="M113.43,121.19h-10.56c-3.85,2.25-8.11,3.87-12.65,4.72.6,1.43.93,2.99.93,4.63s-.29,3.09-.84,4.5c10.68-1.64,20.22-6.78,27.43-14.19-1.41.22-2.84.34-4.31.34Z"/>
        <path class="cls-4" d="M66.76,130.54c0-2.41.71-4.66,1.93-6.56-2.03-.78-3.98-1.72-5.83-2.8h-14.54c5.19,5.24,11.57,9.29,18.68,11.75-.15-.78-.24-1.58-.24-2.4Z"/>
      </g>
      <path class="cls-2" d="M136.08,93.39c0,12.79-10.31,22.73-22.73,22.73H41.82c-12.3,0-22.23-9.97-22.23-22.27h9.32c0,3.48,1.37,6.71,3.85,9.07,2.36,2.48,5.59,3.85,9.07,3.85l71.73-.12c7.08,0,13.17-5.96,13.17-13.29v-36.36s9.35,0,9.35,0v36.4ZM86.1,130.54c0,1.99-.75,3.73-2.11,5.09-1.37,1.37-3.11,2.11-5.09,2.11-3.85,0-7.08-3.23-7.08-7.21s3.23-7.08,7.08-7.08,7.2,3.23,7.2,7.08Z"/>
      <path class="cls-2" d="M283.96,93.15c-1.49-2.36-3.35-4.59-5.96-6.71-4.24-3.45-9.12-5.72-14.74-6.77-.33.43-.67.84-1.06,1.23-2.27,2.27-5.18,3.47-8.42,3.47s-6.28-1.2-8.54-3.47c-.32-.31-.61-.65-.88-.98-5.1,1.08-9.63,3.14-13.43,6.4-2.48,1.99-4.34,4.48-5.96,6.83-3.6,5.59-5.22,11.55-4.85,18.14.38,6.71,2.83,12.5,7.3,17.1h-69.92c-1.24,0-1.91-.71-1.91-1.95V18.71h-9.36v119.04h110.29c10.93,0,19.25-3.11,25.09-9.44,4.34-4.6,6.83-10.31,7.2-17.02.38-6.59-1.37-12.55-4.85-18.14ZM274.28,121.97c-4.35,4.23-10.44,6.34-18.51,6.34h-2.61c-8.07,0-14.16-2.24-18.51-6.34-3.73-3.73-5.59-8.2-5.22-13.67.37-5.34,2.48-9.94,6.58-13.67,4.59-4.22,10.31-6.34,17.14-6.34h2.61c6.96,0,12.67,2.11,17.14,6.34,4.1,3.73,6.33,8.32,6.71,13.67.37,5.47-1.49,10.06-5.34,13.67Z"/>
      <path class="cls-4" d="M258.62,67.39c1.37,1.37,2.11,3.11,2.11,4.97s-.75,3.6-2.11,4.97c-1.37,1.37-2.98,1.99-4.84,1.99s-3.6-.62-4.97-1.99c-1.37-1.37-2.11-3.11-2.11-4.97s.75-3.6,2.11-4.97c1.37-1.37,3.11-1.99,4.97-1.99s3.48.62,4.84,1.99Z"/>
      <path class="cls-2" d="M279.49,226.63v28.04c0,3.6-1.24,6.83-3.85,9.44-2.61,2.61-5.73,3.95-9.34,3.95h-108.79c-1.24.01-1.93-.7-1.93-1.94v-94.44h-9.36v105.74h116.57c.6-1.64,1.56-3.15,2.84-4.44,2.32-2.32,5.35-3.59,8.54-3.59,2.59,0,4.98.76,7.02,2.21.31-.29.63-.58.93-.89,4.47-4.48,6.71-9.69,6.71-16.03v-28.04h-9.36Z"/>
      <path class="cls-4" d="M279.28,276.55c1.37,1.37,2.11,3.11,2.11,4.97,0,1.99-.74,3.73-2.11,5.09-1.37,1.37-3.11,2.11-5.09,2.11-1.86,0-3.6-.75-4.97-2.11-1.37-1.37-2.11-3.11-2.11-5.09,0-1.86.75-3.6,2.11-4.97s3.11-2.11,4.97-2.11c1.99,0,3.73.75,5.09,2.11Z"/>
      <g>
        <path class="cls-2" d="M53.86,277.42l-12,.02c-3.48,0-6.71-1.37-9.07-3.85-2.48-2.36-3.85-5.59-3.85-9.07h-9.35c0,12.3,9.93,22.26,22.23,22.26h18.63l-6.59-9.36Z"/>
        <path class="cls-2" d="M126.72,171.68l-.03,92.7c0,7.33-6.09,13.04-13.04,13.04l-35.66.06,6.65,9.29h28.92c12.05,0,22.48-10.44,22.48-22.49l.03-92.62h-9.36Z"/>
      </g>
      <path class="cls-4" d="M113.51,205.51l-24.08-33.84h-11.87s27.91,39.46,27.91,39.46c.89,1.4,1.51,2.81,1.51,4.47s-1.79,3.32-2.69,4.72l-11.84,16.69v11.42h-8.1l-7.76,10.95h11.87l23.74-33.57c2.17-2.94,4.47-6.38,4.47-10.21s-.99-7.15-3.16-10.09Z"/>
      <path class="cls-4" d="M49.69,244.95c0-1.66.51-3.06,1.4-4.47l8.83-12.5c-.03-3.01.66-5.87,2.09-8.43,2.01-3.58,5.23-6.23,9.41-7.85l6.99-9.89h-11.84l-23.48,33.05c-2.17,2.94-3.19,6.38-3.19,10.08s2.36,7.27,4.53,10.21l23.74,33.57h11.87l-27.69-39.05c-.89-1.4-2.65-3.06-2.65-4.72Z"/>
      <path class="cls-2" d="M86.94,221.06c-7.39-1.21-11.96.27-13.85,4.3-2.15,4.44.54,10.62,6.99,12.23h7.93v5.78h-23.52v-5.78h4.17c-7.66-12.5-.94-24.47,18.28-22.45v5.91Z"/>
      <path class="cls-3" d="M0,0v309.52h309.52V0H0ZM300.17,300.17H9.36V9.36h290.81v290.81Z"/>
    </g>
  </g>
</svg>