<?xml version="1.0" encoding="UTF-8"?>
<svg id="Layer_2" data-name="Layer 2" xmlns="http://www.w3.org/2000/svg" viewBox="0 0 377.65 377.65">
  <defs>
    <style>
      .cls-1 {
        fill: #231f20;
        stroke-width: 0px;
      }
    </style>
  </defs>
  <g id="Layer_1-2" data-name="Layer 1">
    <g>
      <path class="cls-1" d="M273.93,292.04c-1.09,1.71-1.71,3.43-1.71,5.45s.62,4.05,1.71,5.76l34.74,49.02h-14.48l-29.92-42.33c-2.65-3.58-3.89-7.79-3.89-12.46s1.25-8.72,3.89-12.3l30.07-42.48h14.33l-34.74,49.33Z"/>
      <path class="cls-1" d="M338.86,256.23c1.09,1.71,1.71,3.43,1.71,5.45s-.62,4.05-1.71,5.76l-33.79,47.65h14.48l28.96-40.95c2.65-3.58,3.89-7.79,3.89-12.46s-1.25-8.72-3.89-12.3l-28.38-39.91h-14.33l33.05,46.77Z"/>
      <path class="cls-1" d="M228.48,247.51c0,6.1-1.25,11.72-3.7,16.79-2.43-3.72-5.28-7.21-8.53-10.38,0-.02-.02-.02-.03-.03.48-2.04.73-4.16.73-6.38,0-7.32-2.65-13.85-7.79-18.99-5.14-4.99-11.52-7.64-18.84-7.64H49.88c-7.99,0-14.47,6.48-14.47,14.47v36.6c0,1.56.79,2.34,2.19,2.34h152.73c3.81,0,7.36-.77,10.62-2.2,2.66,2.85,4.87,6.13,6.52,9.73-5.17,2.63-10.88,4-17.14,4H37.6c-1.21,0-2.18.97-2.18,2.18v64.28h-11.53v-117.06c0-14.46,11.76-25.75,26.21-25.75h140.27c10.59,0,19.58,3.47,27.05,10.95,7.32,7.47,11.06,16.51,11.06,27.1Z"/>
      <path class="cls-1" d="M228.57,296.12h0c-.74-29.57-25.13-53.41-54.87-53.41h-65.1c-19.51,0-36.98,10.06-46.92,25.42h14.22c7.92-8.61,19.28-14,31.9-14h65.9c23.49,0,42.6,18.68,43.33,41.99h0l-.12,4.9c-1.8,22.3-20.45,39.84-43.21,39.84h-65.9c-23.95,0-43.37-19.42-43.37-43.37h0c0-1.87.14-3.71.37-5.51h-11.5c-.1.95-.18,1.91-.22,2.88-1.48,31.4,23.64,57.42,54.72,57.42h65.9c16.5,0,31.32-7.34,41.37-18.93.64-.74,1.98-.29,1.98.68l-.11,18.25h11.52l.11-54.1c0-.23.02-.45.02-.68s-.01-.45-.02-.68v-.7Z"/>
      <path class="cls-1" d="M53.83,101.62h11.62c.26,0,.51.06.75.14h142.88c-1.38-4.3-3.51-8.24-6.24-11.68H72.72s0,0,0,0c0,0,0,0-.01,0h-35.06c-1.56,0-2.34-.78-2.34-2.34v-34.88c0-8.88,7.16-18.61,16.35-18.61h176.8v-11.43H51.66c-7.79,0-14.77,3.88-20.22,9.49-5.45,5.45-7.55,12.77-7.55,20.56v115.2h11.42v-64.28c0-1.25.78-2.02,2.34-2.02h15.4c.25-.09.52-.14.79-.14Z"/>
      <path class="cls-1" d="M228.46,112.61v-.7h-.02c-.74-29.57-25-53.41-54.75-53.41h-65.1c-19.5,0-36.96,10.06-46.91,25.4h14.24c7.92-8.6,19.26-13.98,31.87-13.98h65.9c23.49,0,42.6,18.68,43.33,41.99h0l-.12,4.9c-1.8,22.3-20.45,39.84-43.21,39.84h-65.9c-23.95,0-43.37-19.42-43.37-43.37h0c0-1.86.13-3.69.36-5.49h-.04s-10.22-.01-10.22-.01l-.38.14h-.87c-.09.9-.17,1.81-.21,2.72-1.48,31.4,23.64,57.42,54.72,57.42h65.9c16.5,0,31.32-7.34,41.37-18.93.64-.74,1.98-.29,1.98.68v18.25h11.42v-54.1c0-.23.02-.45.02-.68s-.01-.45-.02-.68Z"/>
      <rect class="cls-1" x="242.68" y="209.46" width="11.47" height="142.81"/>
      <path class="cls-1" d="M350.82,99.37h0s-8.09-8.09-8.09-8.09l-28.27,28.27-23.46-.06v-23.56s28.16-28.17,28.16-28.17l-8.08-8.06c-4.31-1.05-8.84-1.56-13.61-1.56-14.61,0-26.99,4.94-37.13,14.61v17.86c1.77-2.87,3.92-5.6,6.45-8.18,8.56-8.56,18.84-12.61,30.68-12.61,1.14,0,2.27.04,3.38.11l-21.27,21.27v39.71h39.72v-.06l.03.03,21.44-21.44c.1,1.2.15,2.42.15,3.66,0,11.99-4.2,21.96-12.77,30.53-8.41,8.56-18.69,12.61-30.67,12.61s-22.12-4.05-30.68-12.61c-2.53-2.58-4.68-5.29-6.45-8.15v18.26c10.43,9.55,22.93,14.33,37.13,14.33,15.26,0,28.03-5.29,38.93-16.2,10.75-10.74,16.04-23.66,16.04-38.78,0-4.79-.53-9.38-1.6-13.73Z"/>
      <rect class="cls-1" x="242.68" y="22.83" width="11.47" height="145.24"/>
      <rect class="cls-1" x="23.89" y="183.12" width="328.52" height="11.42"/>
      <path class="cls-1" d="M0,0v377.65h377.65V0H0ZM366.24,366.24H11.42V11.42h354.82v354.82Z"/>
    </g>
  </g>
</svg>