<?xml version="1.0" encoding="UTF-8"?>
<svg id="Layer_2" data-name="Layer 2" xmlns="http://www.w3.org/2000/svg" viewBox="0 0 282.62 568.3">
  <defs>
    <style>
      .cls-1 {
        fill: #b82481;
      }

      .cls-1, .cls-2, .cls-3 {
        stroke-width: 0px;
      }

      .cls-2 {
        fill: #fbad55;
      }

      .cls-3 {
        fill: #095297;
      }
    </style>
  </defs>
  <g id="Layer_1-2" data-name="Layer 1">
    <g>
      <g>
        <path class="cls-3" d="M48.63,305.23c-.49.77-.76,1.53-.76,2.43s.28,1.81.76,2.57l15.09,21.28h-6.47l-12.93-18.29c-1.18-1.6-1.74-3.48-1.74-5.56s.56-3.89,1.74-5.49l12.8-18.01h6.4l-14.88,21.07Z"/>
        <path class="cls-3" d="M130.18,302.17l-12.79-18.01h-6.4l14.88,21.07c.49.76.76,1.53.76,2.43s-.27,1.81-.76,2.58l-15.09,21.28h6.47l12.93-18.29c1.18-1.6,1.74-3.48,1.74-5.57s-.56-3.89-1.74-5.49Z"/>
        <path class="cls-3" d="M23.13,302.17l-12.8-18.01H3.93l.48.68,14.4,20.39c.49.76.77,1.53.77,2.43s-.28,1.81-.77,2.58l-14.4,20.31-.69.97h6.47l12.94-18.29c1.18-1.6,1.73-3.48,1.73-5.57s-.55-3.89-1.73-5.49Z"/>
        <path class="cls-3" d="M23.3,396.88l-12.79-18.01h-6.47l.37.52,14.58,20.55c.49.77.76,1.53.76,2.44s-.27,1.81-.76,2.57l-14.58,20.56-.51.72h6.47l12.93-18.29c1.18-1.6,1.74-3.47,1.74-5.56s-.56-3.9-1.74-5.5Z"/>
        <path class="cls-3" d="M262.7,310.24c-.48-.77-.76-1.67-.76-2.58s.28-1.67.76-2.43l14.89-21.07h-6.4l-12.8,18.01c-1.18,1.6-1.74,3.48-1.74,5.49s.56,3.97,1.74,5.57l12.94,18.29h6.46l-15.09-21.28Z"/>
        <path class="cls-3" d="M278.21,426.06l-14.97-21.11c-.49-.76-.77-1.67-.77-2.57s.28-1.67.77-2.44l14.88-21.07h-6.47l-12.73,18.01c-1.18,1.6-1.73,3.48-1.73,5.5s.55,3.96,1.73,5.56l12.94,18.29h6.47l-.12-.17Z"/>
        <path class="cls-3" d="M49.51,363.01s-.01,0-.02,0h0s.01,0,.01,0Z"/>
        <path class="cls-3" d="M49.51,338.75s-.01,0-.02,0h0s.01,0,.01,0Z"/>
        <path class="cls-2" d="M110.1,300.56h0s0-.01,0-.01l-3.21-3.22-1.99,1.99-8.82,8.83h-8.85v-8.85l10.8-10.8-3.21-3.21h-.03c-2.27-.74-4.7-1.13-7.21-1.13-13.06,0-23.68,10.62-23.68,23.68s10.62,23.68,23.68,23.68,23.67-10.63,23.67-23.68c0-2.54-.4-4.99-1.14-7.28ZM87.57,327.14c-10.66,0-19.3-8.64-19.3-19.3s8.64-19.3,19.3-19.3c1.24,0,2.44.12,3.62.34l-8.53,8.53v15.29l15.3-.02,8.55-8.54c.24,1.2.36,2.43.36,3.7,0,10.66-8.64,19.3-19.3,19.3Z"/>
        <path class="cls-3" d="M155.67,305.23c-.49.77-.76,1.53-.76,2.43s.28,1.81.76,2.57l15.09,21.28h-6.47l-12.93-18.29c-1.18-1.6-1.74-3.48-1.74-5.56s.56-3.89,1.74-5.49l12.8-18.01h6.4l-14.88,21.07Z"/>
        <path class="cls-3" d="M237.22,302.17l-12.8-18.01h-6.4l14.88,21.07c.49.76.77,1.53.77,2.43s-.28,1.81-.77,2.58l-15.09,21.28h6.47l12.94-18.29c1.18-1.6,1.73-3.48,1.73-5.57s-.55-3.89-1.73-5.49Z"/>
        <path class="cls-2" d="M217.13,300.56h0s-3.22-3.23-3.22-3.23l-1.98,1.99-8.83,8.83h-8.85v-8.85l10.8-10.8-3.2-3.21h-.03c-2.28-.74-4.7-1.13-7.22-1.13-13.05,0-23.67,10.62-23.67,23.68s10.62,23.68,23.67,23.68,23.68-10.63,23.68-23.68c0-2.54-.4-4.99-1.15-7.28ZM194.6,327.14c-10.65,0-19.29-8.64-19.29-19.3s8.64-19.3,19.29-19.3c1.24,0,2.45.12,3.62.34l-.33.34-8.2,8.19v15.29l15.3-.02,8.56-8.54c.23,1.2.35,2.43.35,3.7,0,10.66-8.64,19.3-19.3,19.3Z"/>
        <polygon class="cls-3" points="4.41 339.77 0 346.06 0 336.83 3.72 331.52 10.19 331.52 4.41 339.77"/>
        <polygon class="cls-3" points="10.51 378.87 4.04 378.87 0 373.16 0 364.05 4.41 370.27 10.51 378.87"/>
        <path class="cls-3" d="M76.97,349.53l-13.26-18.01h-6.46l15.41,21.07c.48.76.76,1.53.76,2.43s-.28,1.81-.76,2.57l-15.1,21.28h6.47l12.94-18.29c1.18-1.59,1.74-3.47,1.74-5.56s-.56-3.89-1.74-5.49Z"/>
        <path class="cls-2" d="M56.88,347.92h0s-3.21-3.23-3.21-3.23l-1.99,1.99-8.83,8.82h-8.85v-8.84l10.8-10.8-3.2-3.21s-.02-.01-.03-.01c-2.28-.73-4.7-1.12-7.22-1.12-13.05,0-23.67,10.62-23.67,23.68s10.62,23.67,23.67,23.67,23.68-10.62,23.68-23.67c0-2.54-.4-4.99-1.15-7.28ZM34.35,374.49c-10.65,0-19.29-8.64-19.29-19.29s8.64-19.3,19.29-19.3c1.24,0,2.45.11,3.62.34l-.33.33-8.19,8.2v15.29l15.29-.02,8.56-8.54c.23,1.19.35,2.43.35,3.7,0,10.65-8.64,19.29-19.3,19.29Z"/>
        <path class="cls-3" d="M102.46,352.59c-.49.77-.76,1.53-.76,2.43s.28,1.81.76,2.57l15.09,21.28h-6.47l-12.93-18.29c-1.18-1.6-1.74-3.48-1.74-5.56s.56-3.89,1.74-5.49l12.62-18.01h6.47l-14.77,21.07Z"/>
        <path class="cls-3" d="M184.01,349.53l-13.25-18.01h-6.47l15.41,21.07c.48.76.76,1.53.76,2.43s-.28,1.81-.76,2.57l-15.09,21.28h6.46l12.94-18.29c1.18-1.59,1.74-3.47,1.74-5.56s-.56-3.89-1.74-5.49Z"/>
        <path class="cls-2" d="M163.93,347.92h0s0-.01,0-.01l-3.21-3.22-10.81,10.81h-8.85v-8.84l10.79-10.8-3.2-3.21s-.02-.01-.03-.01c-2.28-.73-4.7-1.12-7.21-1.12-13.06,0-23.68,10.62-23.68,23.68s10.62,23.67,23.68,23.67,23.67-10.62,23.67-23.67c0-2.54-.4-4.99-1.14-7.28ZM141.4,374.49c-10.66,0-19.3-8.64-19.3-19.29s8.64-19.3,19.3-19.3c1.23,0,2.44.11,3.62.34l-.34.33-8.19,8.2v15.29l15.3-.02,8.55-8.54c.23,1.19.36,2.43.36,3.7,0,10.65-8.64,19.29-19.3,19.29Z"/>
        <path class="cls-3" d="M49.25,399.94c-.49.77-.76,1.53-.76,2.43s.28,1.81.76,2.57l14.56,21.28h-6.4l-12.48-18.29c-1.18-1.6-1.74-3.48-1.74-5.56s.56-3.89,1.74-5.49l12.62-18.01h6.47l-14.77,21.07Z"/>
        <path class="cls-3" d="M130.8,396.88l-13.25-18.01h-6.47l15.41,21.07c.49.77.77,1.53.77,2.44s-.28,1.81-.77,2.57l-15.2,21.28h6.4l13.11-18.29c1.18-1.6,1.74-3.47,1.74-5.56s-.56-3.9-1.74-5.5Z"/>
        <path class="cls-2" d="M110.72,395.27h0s-3.22-3.22-3.22-3.22l-10.81,10.81h-8.85v-8.85l10.8-10.8-3.21-3.2s-.02,0-.02,0c-2.28-.73-4.7-1.13-7.22-1.13-13.06,0-23.68,10.63-23.68,23.68s10.62,23.68,23.68,23.68,23.68-10.62,23.68-23.68c0-2.54-.4-4.98-1.15-7.28ZM88.19,421.85c-10.66,0-19.3-8.64-19.3-19.3s8.64-19.3,19.3-19.3c1.24,0,2.45.12,3.62.35l-.34.33-8.19,8.19v15.3l15.3-.03,8.56-8.54c.23,1.2.35,2.44.35,3.7,0,10.66-8.64,19.3-19.3,19.3Z"/>
        <path class="cls-3" d="M209.5,352.59c-.49.77-.76,1.53-.76,2.43s.28,1.81.76,2.57l15.09,21.28h-6.47l-12.93-18.29c-1.18-1.6-1.74-3.48-1.74-5.56s.56-3.89,1.74-5.49l12.62-18.01h6.47l-14.77,21.07Z"/>
        <path class="cls-3" d="M278.21,369.62l-6.56,9.25h6.47l.09-.13,4.41-6.24v-9.1l-4.41,6.22ZM278.21,332.08l-.41-.56h-6.47l6.88,9.41,4.41,6.03v-8.89l-4.41-5.99Z"/>
        <path class="cls-2" d="M270.97,347.92h0s-3.22-3.23-3.22-3.23l-10.81,10.81h-8.85v-8.84l10.8-10.8-3.21-3.21s-.02-.01-.02-.01c-2.28-.73-4.7-1.12-7.22-1.12-13.06,0-23.68,10.62-23.68,23.68s10.62,23.67,23.68,23.67,23.68-10.62,23.68-23.67c0-2.54-.4-4.99-1.15-7.28ZM248.44,374.49c-10.66,0-19.3-8.64-19.3-19.29s8.64-19.3,19.3-19.3c1.24,0,2.45.11,3.62.34l-.34.33-8.19,8.2v15.29l15.3-.02,8.56-8.54c.23,1.19.35,2.43.35,3.7,0,10.65-8.64,19.29-19.3,19.29Z"/>
        <path class="cls-3" d="M156.3,399.94c-.49.77-.76,1.53-.76,2.43s.28,1.81.76,2.57l14.56,21.28h-6.4l-12.48-18.29c-1.18-1.6-1.74-3.48-1.74-5.56s.56-3.89,1.74-5.49l12.62-18.01h6.47l-14.77,21.07Z"/>
        <path class="cls-3" d="M237.85,396.88l-13.26-18.01h-6.46l15.4,21.07c.49.77.77,1.53.77,2.44s-.28,1.81-.77,2.57l-15.2,21.28h6.4l13.12-18.29c1.18-1.6,1.73-3.47,1.73-5.56s-.55-3.9-1.73-5.5Z"/>
        <path class="cls-2" d="M217.76,395.27h0s-3.21-3.22-3.21-3.22l-1.99,1.99-8.83,8.82h-8.85v-8.85l10.8-10.8-3.2-3.2s-.02,0-.03,0c-2.28-.73-4.7-1.13-7.22-1.13-13.05,0-23.67,10.63-23.67,23.68s10.62,23.68,23.67,23.68,23.68-10.62,23.68-23.68c0-2.54-.4-4.98-1.15-7.28ZM195.23,421.85c-10.65,0-19.29-8.64-19.29-19.3s8.64-19.3,19.29-19.3c1.24,0,2.45.12,3.62.35l-.33.33-8.2,8.19v15.3l15.3-.03,8.56-8.54c.23,1.2.35,2.44.35,3.7,0,10.66-8.64,19.3-19.3,19.3Z"/>
        <path class="cls-3" d="M49.51,339.73s-.01,0-.02,0h0s.01,0,.01,0Z"/>
        <path class="cls-3" d="M102.11,447.3c-.49.77-.76,1.53-.76,2.43s.28,1.81.76,2.57l15.09,21.28h-6.47l-12.93-18.29c-1.18-1.6-1.74-3.48-1.74-5.56s.56-3.89,1.74-5.49l13.5-18.01h6.4l-15.58,21.07Z"/>
        <path class="cls-3" d="M183.66,444.24l-12.8-18.01h-6.4l14.88,21.07c.49.77.77,1.53.77,2.44s-.28,1.8-.77,2.57l-15.09,21.28h6.47l12.94-18.29c1.18-1.6,1.73-3.48,1.73-5.56s-.55-3.9-1.73-5.5Z"/>
        <path class="cls-3" d="M76.6,444.24l-12.79-18.01h-6.4l14.88,21.07c.49.77.76,1.53.76,2.44s-.27,1.8-.76,2.57l-15.09,21.28h6.47l12.93-18.29c1.18-1.6,1.74-3.48,1.74-5.56s-.56-3.9-1.74-5.5Z"/>
        <path class="cls-3" d="M76.78,538.96l-12.8-18.01h-6.46l14.94,21.07c.49.76.77,1.53.77,2.43s-.28,1.81-.77,2.57l-15.09,21.28h6.47l12.94-18.29c1.18-1.59,1.73-3.47,1.73-5.56s-.55-3.89-1.73-5.49Z"/>
        <path class="cls-3" d="M3.94,426.23l-3.94,5.55v9.09l4.41-6.24,5.93-8.4H3.94ZM4.41,464.93l-4.41-6.22v9.11l4.08,5.77h6.47l-6.14-8.66Z"/>
        <path class="cls-3" d="M4.41,558.89l-4.41-6.22v9.11l4.41,6.24.2.28h6.47l-6.67-9.41ZM4.41,520.95l-4.41,6.24v9.15l4.41-6.24,6.46-9.15h-6.46Z"/>
        <path class="cls-3" d="M102.98,505.08s-.01,0-.02,0h0s.01,0,.01,0Z"/>
        <path class="cls-3" d="M102.98,480.82s-.01,0-.02,0h0s.01,0,.01,0Z"/>
        <path class="cls-2" d="M163.57,442.63h0s-3.22-3.22-3.22-3.22l-1.98,1.99-8.83,8.82h-8.85v-8.85l10.8-10.8-3.2-3.2s-.02-.01-.03-.01c-2.28-.73-4.7-1.13-7.22-1.13-13.05,0-23.67,10.62-23.67,23.68s10.62,23.68,23.67,23.68,23.68-10.62,23.68-23.68c0-2.54-.4-4.98-1.15-7.28ZM141.04,469.21c-10.65,0-19.29-8.64-19.29-19.3s8.64-19.3,19.29-19.3c1.24,0,2.45.12,3.62.34l-.33.34-8.2,8.19v15.3l15.3-.03,8.56-8.54c.23,1.2.35,2.44.35,3.7,0,10.66-8.64,19.3-19.3,19.3Z"/>
        <path class="cls-3" d="M209.14,447.3c-.49.77-.76,1.53-.76,2.43s.28,1.81.76,2.57l15.09,21.28h-6.47l-12.93-18.29c-1.18-1.6-1.74-3.48-1.74-5.56s.56-3.89,1.74-5.49l13.5-18.01h6.4l-15.59,21.07Z"/>
        <path class="cls-3" d="M278.21,463.83l-6.92,9.76h6.47l.45-.64,4.41-6.23v-9.11l-4.41,6.22ZM278.29,426.23h-6.4l6.32,9.19,4.41,6.41v-9.31l-4.33-6.29Z"/>
        <path class="cls-2" d="M270.61,442.63s0,0-.01,0l-3.21-3.21-1.99,1.99-8.82,8.82h-8.85v-8.85l10.8-10.8-3.21-3.2s-.02-.01-.03-.01c-2.27-.73-4.7-1.13-7.21-1.13-13.06,0-23.68,10.62-23.68,23.68s10.62,23.68,23.68,23.68,23.67-10.62,23.67-23.68c0-2.54-.4-4.98-1.14-7.28ZM248.08,469.21c-10.66,0-19.3-8.64-19.3-19.3s8.64-19.3,19.3-19.3c1.24,0,2.45.12,3.62.34l-8.53,8.53v15.3l15.3-.03,8.55-8.54c.24,1.2.36,2.44.36,3.7,0,10.66-8.64,19.3-19.3,19.3Z"/>
        <path class="cls-3" d="M48.89,494.66c-.49.77-.76,1.53-.76,2.43s.28,1.81.76,2.57l15.09,21.28h-6.47l-12.93-18.29c-1.18-1.6-1.74-3.48-1.74-5.56s.56-3.89,1.74-5.49l12.62-18.01h6.47l-14.77,21.07Z"/>
        <path class="cls-3" d="M130.44,491.6l-13.25-18.01h-6.47l15.41,21.07c.49.76.76,1.53.76,2.43s-.27,1.81-.76,2.58l-15.09,21.28h6.47l12.93-18.29c1.18-1.6,1.74-3.48,1.74-5.57s-.56-3.89-1.74-5.49Z"/>
        <path class="cls-2" d="M110.36,489.99h0s0-.01-.01-.01l-3.21-3.22-1.99,1.99-8.82,8.83h-8.85v-8.85l10.8-10.8-3.21-3.21h-.03c-2.27-.74-4.7-1.13-7.21-1.13-13.06,0-23.68,10.62-23.68,23.68s10.62,23.68,23.68,23.68,23.68-10.63,23.68-23.68c0-2.54-.4-4.99-1.15-7.28ZM87.83,516.57c-10.66,0-19.3-8.64-19.3-19.3s8.64-19.3,19.3-19.3c1.24,0,2.45.12,3.62.34l-.34.34-8.19,8.19v15.29l15.3-.02,8.55-8.54c.24,1.2.36,2.43.36,3.7,0,10.66-8.64,19.3-19.3,19.3Z"/>
        <path class="cls-3" d="M155.94,494.66c-.49.77-.76,1.53-.76,2.43s.28,1.81.76,2.57l15.09,21.28h-6.47l-12.93-18.29c-1.18-1.6-1.74-3.48-1.74-5.56s.56-3.89,1.74-5.49l12.62-18.01h6.47l-14.77,21.07Z"/>
        <path class="cls-3" d="M237.48,491.6l-13.25-18.01h-6.47l15.41,21.07c.49.76.77,1.53.77,2.43s-.28,1.81-.77,2.58l-15.09,21.28h6.47l12.93-18.29c1.19-1.6,1.74-3.48,1.74-5.57s-.55-3.89-1.74-5.49Z"/>
        <path class="cls-2" d="M217.4,489.99h0s-3.22-3.23-3.22-3.23l-1.99,1.99-8.82,8.83h-8.85v-8.85l10.8-10.8-3.21-3.21h-.02c-2.28-.74-4.7-1.13-7.22-1.13-13.05,0-23.68,10.62-23.68,23.68s10.63,23.68,23.68,23.68,23.68-10.63,23.68-23.68c0-2.54-.4-4.99-1.15-7.28ZM194.87,516.57c-10.66,0-19.3-8.64-19.3-19.3s8.64-19.3,19.3-19.3c1.24,0,2.45.12,3.62.34l-.33.34-8.2,8.19v15.29l15.3-.02,8.56-8.54c.23,1.2.35,2.43.35,3.7,0,10.66-8.64,19.3-19.3,19.3Z"/>
        <path class="cls-3" d="M102.73,542.02c-.49.77-.76,1.53-.76,2.43s.28,1.81.76,2.57l14.56,21.28h-6.4l-12.48-18.29c-1.18-1.6-1.74-3.48-1.74-5.56s.56-3.89,1.74-5.49l12.62-18.01h6.47l-14.77,21.07Z"/>
        <path class="cls-3" d="M184.28,538.96l-13.25-18.01h-6.47l15.41,21.07c.48.76.76,1.53.76,2.43s-.28,1.81-.76,2.57l-15.2,21.28h6.39l13.12-18.29c1.18-1.59,1.74-3.47,1.74-5.56s-.56-3.89-1.74-5.49Z"/>
        <path class="cls-2" d="M164.19,537.35h0s-3.21-3.23-3.21-3.23l-1.99,1.99-8.83,8.82h-8.85v-8.84l10.8-10.8-3.2-3.21s-.02-.01-.03-.01c-2.28-.73-4.7-1.12-7.22-1.12-13.05,0-23.67,10.62-23.67,23.68s10.62,23.67,23.67,23.67,23.68-10.62,23.68-23.67c0-2.54-.4-4.99-1.15-7.28ZM141.66,563.92c-10.65,0-19.29-8.64-19.29-19.29s8.64-19.3,19.29-19.3c1.24,0,2.45.11,3.62.34l-.33.33-8.19,8.2v15.29l15.29-.02,8.56-8.54c.23,1.19.35,2.43.35,3.7,0,10.65-8.64,19.29-19.3,19.29Z"/>
        <path class="cls-3" d="M262.98,494.66c-.49.77-.76,1.53-.76,2.43s.28,1.81.76,2.57l15.09,21.28h-6.47l-12.93-18.29c-1.18-1.6-1.74-3.48-1.74-5.56s.56-3.89,1.74-5.49l12.62-18.01h6.47l-14.77,21.07Z"/>
        <path class="cls-3" d="M23.81,491.6l-13.25-18.01h-6.47l.32.44,15.09,20.63c.48.76.76,1.53.76,2.43s-.28,1.81-.76,2.58l-15.09,21.28h6.46l12.94-18.29c1.18-1.6,1.74-3.48,1.74-5.57s-.56-3.89-1.74-5.49Z"/>
        <path class="cls-2" d="M56.88,442.63h0s-3.21-3.22-3.21-3.22l-1.99,1.99-8.83,8.82h-8.85v-8.85l10.8-10.8-3.2-3.2s-.02-.01-.03-.01c-2.28-.73-4.7-1.13-7.22-1.13-13.05,0-23.67,10.62-23.67,23.68s10.62,23.68,23.67,23.68,23.68-10.62,23.68-23.68c0-2.54-.4-4.98-1.15-7.28ZM34.35,469.21c-10.65,0-19.29-8.64-19.29-19.3s8.64-19.3,19.29-19.3c1.24,0,2.45.12,3.62.34l-.33.34-8.19,8.19v15.3l15.29-.03,8.56-8.54c.23,1.2.35,2.44.35,3.7,0,10.66-8.64,19.3-19.3,19.3Z"/>
        <path class="cls-2" d="M56.88,537.35h0s-3.21-3.23-3.21-3.23l-1.99,1.99-8.83,8.82h-8.85v-8.84l10.8-10.8-3.2-3.21s-.02-.01-.03-.01c-2.28-.73-4.7-1.12-7.22-1.12-13.05,0-23.67,10.62-23.67,23.68s10.62,23.67,23.67,23.67,23.68-10.62,23.68-23.67c0-2.54-.4-4.99-1.15-7.28ZM34.35,563.92c-10.65,0-19.29-8.64-19.29-19.29s8.64-19.3,19.29-19.3c1.24,0,2.45.11,3.62.34l-.33.33-8.19,8.2v15.29l15.29-.02,8.56-8.54c.23,1.19.35,2.43.35,3.7,0,10.65-8.64,19.29-19.3,19.29Z"/>
        <path class="cls-3" d="M209.77,542.02c-.49.77-.76,1.53-.76,2.43s.28,1.81.76,2.57l14.56,21.28h-6.4l-12.48-18.29c-1.18-1.6-1.74-3.48-1.74-5.56s.56-3.89,1.74-5.49l12.62-18.01h6.47l-14.77,21.07Z"/>
        <path class="cls-3" d="M278.21,521.14l-.14-.19h-6.47l6.61,9.04,4.41,6.03v-8.89l-4.41-5.99ZM271.81,568.3h6.4l4.41-6.15v-8.98l-4.41,6.17-6.4,8.96Z"/>
        <path class="cls-2" d="M271.24,537.35h0s0-.01,0-.01l-3.21-3.22-10.81,10.81h-8.85v-8.84l10.8-10.8-3.21-3.21s-.02-.01-.03-.01c-2.27-.73-4.7-1.12-7.21-1.12-13.06,0-23.68,10.62-23.68,23.68s10.62,23.67,23.68,23.67,23.68-10.62,23.68-23.67c0-2.54-.41-4.99-1.15-7.28ZM248.71,563.92c-10.66,0-19.3-8.64-19.3-19.29s8.64-19.3,19.3-19.3c1.24,0,2.45.11,3.62.34l-.34.33-8.19,8.2v15.29l15.3-.02,8.55-8.54c.24,1.19.36,2.43.36,3.7,0,10.65-8.64,19.29-19.3,19.29Z"/>
        <path class="cls-3" d="M102.98,481.8s-.01,0-.02,0h0s.01,0,.01,0Z"/>
        <path class="cls-3" d="M47.95,21.08c-.49.77-.76,1.53-.76,2.43s.28,1.81.76,2.57l15.09,21.28h-6.47l-12.93-18.29c-1.18-1.6-1.74-3.48-1.74-5.56s.56-3.89,1.74-5.49L56.43,0h6.4l-14.88,21.07Z"/>
        <path class="cls-3" d="M129.5,18.02L116.7,0h-6.4l14.88,21.07c.49.77.77,1.53.77,2.43s-.28,1.81-.77,2.58l-15.09,21.28h6.47l12.94-18.29c1.18-1.6,1.73-3.48,1.73-5.57s-.55-3.89-1.73-5.49Z"/>
        <path class="cls-3" d="M22.44,18.02L10.81,0h-6.4l1.16,1.64,12.56,19.44c.49.77.76,1.53.76,2.43s-.27,1.81-.76,2.58l-13.72,19.35-1.37,1.93h6.47l12.93-18.29c1.18-1.6,1.74-3.48,1.74-5.57s-.56-3.89-1.74-5.49Z"/>
        <path class="cls-3" d="M22.62,112.74l-12.8-18.02H3.36l1.05,1.48,13.89,19.59c.49.77.77,1.53.77,2.44s-.28,1.81-.77,2.57l-13.89,19.59-1.2,1.69h6.47l12.94-18.29c1.18-1.6,1.73-3.47,1.73-5.56s-.55-3.9-1.73-5.49Z"/>
        <path class="cls-3" d="M261.25,23.51c0-.9.28-1.66.77-2.43L278.21,0h-6.4l-14.1,18.01c-1.18,1.6-1.74,3.48-1.74,5.49s.56,3.97,1.74,5.57l12.93,18.29h6.47l-15.09-21.28c-.49-.77-.77-1.67-.77-2.58Z"/>
        <path class="cls-3" d="M262.55,120.8c-.49-.76-.76-1.67-.76-2.57s.27-1.67.76-2.44l14.88-21.07h-6.46l-12.73,18.02c-1.18,1.59-1.74,3.47-1.74,5.49s.56,3.96,1.74,5.56l12.93,18.29h6.47l-15.09-21.28Z"/>
        <path class="cls-3" d="M48.82,78.86s-.01,0-.02,0h0s.01,0,.01,0Z"/>
        <path class="cls-3" d="M48.82,54.6s-.01,0-.02,0h0s.01,0,.01,0Z"/>
        <path class="cls-2" d="M109.41,16.41h0s-3.22-3.23-3.22-3.23l-1.98,1.99-8.83,8.83h-8.85v-8.85l10.8-10.8-3.2-3.21h-.03C91.82.4,89.4,0,86.88,0,73.83,0,63.2,10.63,63.2,23.69s10.63,23.68,23.68,23.68,23.68-10.63,23.68-23.68c0-2.54-.4-4.99-1.15-7.28ZM86.88,42.99c-10.65,0-19.29-8.64-19.29-19.3s8.64-19.3,19.29-19.3c1.24,0,2.45.12,3.62.34l-.33.34-8.2,8.19v15.29l15.3-.02,8.56-8.54c.23,1.2.35,2.43.35,3.7,0,10.66-8.64,19.3-19.3,19.3Z"/>
        <path class="cls-3" d="M154.98,21.08c-.49.77-.76,1.53-.76,2.43s.28,1.81.76,2.57l15.09,21.28h-6.47l-12.93-18.29c-1.18-1.6-1.74-3.48-1.74-5.56s.56-3.89,1.74-5.49L163.47,0h6.4l-14.88,21.07Z"/>
        <path class="cls-3" d="M236.53,18.02L223.73,0h-6.39l14.88,21.07c.49.77.76,1.53.76,2.43s-.27,1.81-.76,2.58l-15.09,21.28h6.47l12.93-18.29c1.18-1.6,1.74-3.48,1.74-5.57s-.56-3.89-1.74-5.49Z"/>
        <path class="cls-2" d="M216.45,16.41s0-.01,0-.01l-3.21-3.22-1.99,1.99-8.82,8.83h-8.85v-8.85l10.8-10.8-3.21-3.21h-.03c-2.27-.74-4.7-1.13-7.21-1.13-13.06,0-23.68,10.62-23.68,23.68s10.62,23.68,23.68,23.68,23.67-10.63,23.67-23.68c0-2.54-.4-4.99-1.14-7.28ZM193.92,42.99c-10.66,0-19.3-8.64-19.3-19.3s8.64-19.3,19.3-19.3c1.23,0,2.44.12,3.62.34l-8.53,8.53v15.29l15.3-.02,8.55-8.54c.24,1.2.36,2.43.36,3.7,0,10.66-8.64,19.3-19.3,19.3Z"/>
        <polygon class="cls-3" points="4.41 54.64 0 60.93 0 51.71 3.04 47.37 9.51 47.37 4.41 54.64"/>
        <polygon class="cls-3" points="9.82 94.72 3.36 94.72 0 89.97 0 80.87 4.41 87.09 9.82 94.72"/>
        <path class="cls-3" d="M76.28,65.38l-13.25-18.01h-6.47l15.41,21.07c.49.76.76,1.53.76,2.43s-.27,1.81-.76,2.57l-15.09,21.28h6.47l12.93-18.29c1.18-1.59,1.74-3.47,1.74-5.56s-.56-3.89-1.74-5.49Z"/>
        <path class="cls-2" d="M56.2,63.77h0s0-.01,0-.01l-3.21-3.22-10.81,10.81h-8.85v-8.84l10.8-10.8-3.21-3.21s-.02-.01-.03-.01c-2.27-.73-4.7-1.12-7.21-1.12-13.06,0-23.68,10.62-23.68,23.68s10.62,23.67,23.68,23.67,23.68-10.62,23.68-23.67c0-2.54-.41-4.99-1.15-7.28ZM33.67,90.34c-10.66,0-19.3-8.64-19.3-19.29s8.64-19.3,19.3-19.3c1.24,0,2.45.12,3.62.34l-.34.33-8.19,8.2v15.29l15.3-.02,8.55-8.54c.24,1.19.36,2.43.36,3.7,0,10.65-8.64,19.29-19.3,19.29Z"/>
        <path class="cls-3" d="M101.78,68.44c-.49.77-.76,1.53-.76,2.43s.28,1.81.76,2.57l15.09,21.28h-6.47l-12.93-18.29c-1.18-1.6-1.74-3.48-1.74-5.56s.56-3.89,1.74-5.49l12.62-18.01h6.47l-14.77,21.07Z"/>
        <path class="cls-3" d="M183.32,65.38l-13.25-18.01h-6.47l15.41,21.07c.49.76.77,1.53.77,2.43s-.28,1.81-.77,2.57l-15.09,21.28h6.47l12.93-18.29c1.19-1.59,1.74-3.47,1.74-5.56s-.55-3.89-1.74-5.49Z"/>
        <path class="cls-2" d="M163.24,63.77h0s-3.22-3.23-3.22-3.23l-10.81,10.81h-8.85v-8.84l10.8-10.8-3.21-3.21s0-.01-.02-.01c-2.28-.73-4.7-1.12-7.22-1.12-13.05,0-23.68,10.62-23.68,23.68s10.63,23.67,23.68,23.67,23.68-10.62,23.68-23.67c0-2.54-.4-4.99-1.15-7.28ZM140.71,90.34c-10.66,0-19.3-8.64-19.3-19.29s8.64-19.3,19.3-19.3c1.24,0,2.45.12,3.62.34l-8.53,8.53v15.29l15.3-.02,8.56-8.54c.23,1.19.35,2.43.35,3.7,0,10.65-8.64,19.29-19.3,19.29Z"/>
        <path class="cls-3" d="M48.57,115.79c-.49.77-.76,1.53-.76,2.43s.28,1.81.76,2.57l14.56,21.28h-6.4l-12.48-18.29c-1.18-1.6-1.74-3.48-1.74-5.56s.56-3.89,1.74-5.49l12.62-18.01h6.47l-14.77,21.07Z"/>
        <path class="cls-3" d="M130.12,112.74l-13.26-18.02h-6.46l15.41,21.07c.48.77.76,1.53.76,2.44s-.28,1.81-.76,2.57l-15.2,21.28h6.39l13.12-18.29c1.18-1.6,1.74-3.47,1.74-5.56s-.56-3.9-1.74-5.49Z"/>
        <path class="cls-2" d="M110.03,111.12h0s-3.21-3.22-3.21-3.22l-1.99,1.99-8.83,8.82h-8.85v-8.85l10.8-10.8-3.2-3.2s-.02-.01-.03-.01c-2.28-.73-4.7-1.13-7.22-1.13-13.05,0-23.67,10.63-23.67,23.68s10.62,23.68,23.67,23.68,23.68-10.62,23.68-23.68c0-2.54-.4-4.98-1.15-7.28ZM87.5,137.7c-10.65,0-19.29-8.64-19.29-19.3s8.64-19.3,19.29-19.3c1.24,0,2.45.12,3.62.35l-8.52,8.52v15.3l15.29-.03,8.56-8.54c.23,1.2.35,2.44.35,3.7,0,10.66-8.64,19.3-19.3,19.3Z"/>
        <path class="cls-3" d="M208.82,68.44c-.49.77-.76,1.53-.76,2.43s.28,1.81.76,2.57l15.09,21.28h-6.47l-12.93-18.29c-1.18-1.6-1.74-3.48-1.74-5.56s.56-3.89,1.74-5.49l12.62-18.01h6.47l-14.77,21.07Z"/>
        <path class="cls-3" d="M278.21,48.86l-1.1-1.49h-6.46l7.56,10.34,4.41,6.03v-8.89l-4.41-5.99ZM278.21,84.51l-7.24,10.21h6.46l.78-1.1,4.41-6.24v-9.09l-4.41,6.22Z"/>
        <path class="cls-2" d="M270.28,63.77h0s-3.21-3.23-3.21-3.23l-1.99,1.99-8.83,8.82h-8.85v-8.84l10.8-10.8-3.2-3.21s-.02-.01-.03-.01c-2.28-.73-4.7-1.12-7.22-1.12-13.05,0-23.67,10.62-23.67,23.68s10.62,23.67,23.67,23.67,23.68-10.62,23.68-23.67c0-2.54-.4-4.99-1.15-7.28ZM247.75,90.34c-10.65,0-19.29-8.64-19.29-19.29s8.64-19.3,19.29-19.3c1.24,0,2.45.12,3.62.34l-.33.33-8.19,8.2v15.29l15.29-.02,8.56-8.54c.23,1.19.35,2.43.35,3.7,0,10.65-8.64,19.29-19.3,19.29Z"/>
        <path class="cls-3" d="M155.61,115.79c-.49.77-.76,1.53-.76,2.43s.28,1.81.76,2.57l14.56,21.28h-6.4l-12.48-18.29c-1.18-1.6-1.74-3.48-1.74-5.56s.56-3.89,1.74-5.49l12.62-18.01h6.47l-14.77,21.07Z"/>
        <path class="cls-3" d="M237.16,112.74l-13.25-18.02h-6.47l15.41,21.07c.49.77.76,1.53.76,2.44s-.27,1.81-.76,2.57l-15.2,21.28h6.4l13.11-18.29c1.18-1.6,1.74-3.47,1.74-5.56s-.56-3.9-1.74-5.49Z"/>
        <path class="cls-2" d="M217.08,111.12h-.01s-3.21-3.22-3.21-3.22l-10.81,10.81h-8.85v-8.85l10.8-10.8-3.21-3.2s-.02-.01-.03-.01c-2.27-.73-4.7-1.13-7.21-1.13-13.06,0-23.68,10.63-23.68,23.68s10.62,23.68,23.68,23.68,23.67-10.62,23.67-23.68c0-2.54-.4-4.98-1.14-7.28ZM194.55,137.7c-10.66,0-19.3-8.64-19.3-19.3s8.64-19.3,19.3-19.3c1.24,0,2.45.12,3.62.35l-.34.33-8.19,8.19v15.3l15.3-.03,8.55-8.54c.24,1.2.36,2.44.36,3.7,0,10.66-8.64,19.3-19.3,19.3Z"/>
        <path class="cls-3" d="M48.82,55.58s-.01,0-.02,0h0s.01,0,.01,0Z"/>
        <path class="cls-3" d="M101.42,163.15c-.49.77-.76,1.53-.76,2.43s.28,1.81.76,2.57l15.09,21.28h-6.47l-12.93-18.29c-1.18-1.6-1.74-3.48-1.74-5.56s.56-3.89,1.74-5.49l13.5-18.01h6.4l-15.58,21.07Z"/>
        <path class="cls-3" d="M182.97,160.09l-12.8-18.01h-6.39l14.88,21.07c.49.77.76,1.53.76,2.44s-.27,1.8-.76,2.57l-15.09,21.28h6.47l12.93-18.29c1.18-1.6,1.74-3.48,1.74-5.56s-.56-3.9-1.74-5.5Z"/>
        <path class="cls-3" d="M75.92,160.09l-12.8-18.01h-6.4l14.88,21.07c.49.77.77,1.53.77,2.44s-.28,1.8-.77,2.57l-15.09,21.28h6.47l12.94-18.29c1.18-1.6,1.73-3.48,1.73-5.56s-.55-3.9-1.73-5.5Z"/>
        <path class="cls-3" d="M76.09,254.81l-12.79-18.01h-6.47l14.95,21.07c.49.76.76,1.53.76,2.43s-.27,1.81-.76,2.57l-14.73,21.29h6.46l12.58-18.3c1.18-1.59,1.74-3.47,1.74-5.56s-.56-3.89-1.74-5.49Z"/>
        <path class="cls-3" d="M4.41,181.75l-4.41-6.21v9.09l3.4,4.81h6.46l-5.45-7.69ZM3.26,142.08l-3.26,4.59v9.08l4.41-6.24,5.25-7.43H3.26Z"/>
        <path class="cls-3" d="M3.72,236.8l-3.72,5.26v9.17l4.41-6.25,5.78-8.18H3.72ZM4.41,275.7l-4.41-6.22v9.12l3.93,5.55h6.47l-5.99-8.45Z"/>
        <path class="cls-3" d="M102.3,220.93s-.01,0-.02,0h0s.01,0,.01,0Z"/>
        <path class="cls-3" d="M102.3,196.67s-.01,0-.02,0h0s.01,0,.01,0Z"/>
        <path class="cls-2" d="M162.89,158.48s0-.01,0-.01l-3.21-3.21-1.99,1.99-8.82,8.82h-8.85v-8.85l10.8-10.8-3.21-3.2s-.02-.01-.03-.01c-2.27-.73-4.7-1.13-7.21-1.13-13.06,0-23.68,10.62-23.68,23.68s10.62,23.68,23.68,23.68,23.67-10.62,23.67-23.68c0-2.54-.4-4.98-1.14-7.28ZM140.36,185.06c-10.66,0-19.3-8.64-19.3-19.3s8.64-19.3,19.3-19.3c1.23,0,2.44.12,3.62.34l-8.53,8.53v15.3l15.3-.03,8.55-8.54c.24,1.2.36,2.44.36,3.7,0,10.66-8.64,19.3-19.3,19.3Z"/>
        <path class="cls-3" d="M208.46,163.15c-.49.77-.76,1.53-.76,2.43s.28,1.81.76,2.57l15.09,21.28h-6.47l-12.93-18.29c-1.18-1.6-1.74-3.48-1.74-5.56s.56-3.89,1.74-5.49l13.5-18.01h6.4l-15.59,21.07Z"/>
        <path class="cls-3" d="M278.21,142.95l-.6-.87h-6.4l7,10.19,4.41,6.41v-9.32l-4.41-6.41ZM278.21,178.71l-7.61,10.73h6.47l1.14-1.61,4.41-6.23v-9.11l-4.41,6.22Z"/>
        <path class="cls-2" d="M269.92,158.48h0s-3.22-3.22-3.22-3.22l-1.98,1.99-8.83,8.82h-8.85v-8.85l10.8-10.8-3.2-3.2s-.02-.01-.03-.01c-2.28-.73-4.7-1.13-7.22-1.13-13.05,0-23.68,10.62-23.68,23.68s10.63,23.68,23.68,23.68,23.68-10.62,23.68-23.68c0-2.54-.4-4.98-1.15-7.28ZM247.39,185.06c-10.65,0-19.29-8.64-19.29-19.3s8.64-19.3,19.29-19.3c1.24,0,2.45.12,3.62.34l-.33.34-8.2,8.19v15.3l15.3-.03,8.56-8.54c.23,1.2.35,2.44.35,3.7,0,10.66-8.64,19.3-19.3,19.3Z"/>
        <path class="cls-3" d="M48.21,210.51c-.49.77-.76,1.53-.76,2.43s.28,1.81.76,2.57l15.09,21.28h-6.47l-12.93-18.29c-1.18-1.6-1.74-3.48-1.74-5.56s.56-3.89,1.74-5.49l12.62-18.01h6.47l-14.77,21.07Z"/>
        <path class="cls-3" d="M129.76,207.45l-13.26-18.01h-6.46l15.4,21.07c.49.77.77,1.53.77,2.43s-.28,1.81-.77,2.58l-15.09,21.28h6.47l12.94-18.29c1.18-1.6,1.73-3.48,1.73-5.57s-.55-3.89-1.73-5.49Z"/>
        <path class="cls-2" d="M109.67,205.84h0s-3.21-3.23-3.21-3.23l-1.99,1.99-8.83,8.83h-8.85v-8.85l10.8-10.8-3.2-3.21h-.03c-2.28-.74-4.7-1.13-7.22-1.13-13.05,0-23.67,10.62-23.67,23.68s10.62,23.68,23.67,23.68,23.68-10.63,23.68-23.68c0-2.54-.4-4.99-1.15-7.28ZM87.14,232.42c-10.65,0-19.29-8.64-19.29-19.3s8.64-19.3,19.29-19.3c1.24,0,2.45.12,3.62.34l-.33.34-8.19,8.19v15.29l15.29-.02,8.56-8.54c.23,1.2.35,2.43.35,3.7,0,10.66-8.64,19.3-19.3,19.3Z"/>
        <path class="cls-3" d="M155.25,210.51c-.49.77-.76,1.53-.76,2.43s.28,1.81.76,2.57l15.09,21.28h-6.47l-12.93-18.29c-1.18-1.6-1.74-3.48-1.74-5.56s.56-3.89,1.74-5.49l12.62-18.01h6.47l-14.77,21.07Z"/>
        <path class="cls-3" d="M236.8,207.45l-13.25-18.01h-6.47l15.41,21.07c.48.77.76,1.53.76,2.43s-.28,1.81-.76,2.58l-15.09,21.28h6.46l12.94-18.29c1.18-1.6,1.74-3.48,1.74-5.57s-.56-3.89-1.74-5.49Z"/>
        <path class="cls-2" d="M216.72,205.84s0-.01,0-.01l-3.21-3.22-1.99,1.99-8.82,8.83h-8.85v-8.85l10.79-10.8-3.2-3.21h-.03c-2.28-.74-4.7-1.13-7.21-1.13-13.06,0-23.68,10.62-23.68,23.68s10.62,23.68,23.68,23.68,23.67-10.63,23.67-23.68c0-2.54-.4-4.99-1.14-7.28ZM194.19,232.42c-10.66,0-19.3-8.64-19.3-19.3s8.64-19.3,19.3-19.3c1.23,0,2.44.12,3.62.34l-8.53,8.53v15.29l15.3-.02,8.55-8.54c.23,1.2.36,2.43.36,3.7,0,10.66-8.64,19.3-19.3,19.3Z"/>
        <path class="cls-3" d="M102.04,257.87c-.49.77-.76,1.53-.76,2.43s.28,1.81.76,2.57l15.32,21.28h-6.4l-13.23-18.29c-1.18-1.6-1.74-3.48-1.74-5.56s.56-3.89,1.74-5.49l12.62-18.01h6.47l-14.77,21.07Z"/>
        <path class="cls-3" d="M183.59,254.81l-13.25-18.01h-6.47l15.41,21.07c.49.76.77,1.53.77,2.43s-.28,1.81-.77,2.57l-15.13,21.29h6.4l13.04-18.3c1.18-1.59,1.74-3.47,1.74-5.56s-.56-3.89-1.74-5.49Z"/>
        <path class="cls-2" d="M163.51,253.2h0s-3.22-3.23-3.22-3.23l-10.81,10.81h-8.85v-8.84l10.8-10.8-3.21-3.21s-.02-.01-.02-.01c-2.28-.73-4.7-1.12-7.22-1.12-13.06,0-23.68,10.62-23.68,23.68s10.62,23.67,23.68,23.67,23.68-10.62,23.68-23.67c0-2.54-.4-4.99-1.15-7.28ZM140.98,279.77c-10.66,0-19.3-8.64-19.3-19.29s8.64-19.3,19.3-19.3c1.24,0,2.45.11,3.62.34l-.34.33-8.19,8.2v15.29l15.3-.02,8.56-8.54c.23,1.19.35,2.43.35,3.7,0,10.65-8.64,19.29-19.3,19.29Z"/>
        <path class="cls-3" d="M262.29,210.51c-.49.77-.76,1.53-.76,2.43s.28,1.81.76,2.57l15.09,21.28h-6.47l-12.93-18.29c-1.18-1.6-1.74-3.48-1.74-5.56s.56-3.89,1.74-5.49l12.62-18.01h6.47l-14.77,21.07Z"/>
        <path class="cls-3" d="M23.12,207.45l-13.25-18.01H3.4l1.01,1.38,14.4,19.69c.49.77.77,1.53.77,2.43s-.28,1.81-.77,2.58l-14.4,20.31-.69.97h6.47l12.93-18.29c1.19-1.6,1.74-3.48,1.74-5.57s-.55-3.89-1.74-5.49Z"/>
        <path class="cls-2" d="M56.2,158.48s0-.01,0-.01l-3.21-3.21-1.99,1.99-8.82,8.82h-8.85v-8.85l10.8-10.8-3.21-3.2s-.02-.01-.03-.01c-2.27-.73-4.7-1.13-7.21-1.13-13.06,0-23.68,10.62-23.68,23.68s10.62,23.68,23.68,23.68,23.68-10.62,23.68-23.68c0-2.54-.41-4.98-1.15-7.28ZM33.67,185.06c-10.66,0-19.3-8.64-19.3-19.3s8.64-19.3,19.3-19.3c1.24,0,2.45.12,3.62.34l-8.53,8.53v15.3l15.3-.03,8.55-8.54c.24,1.2.36,2.44.36,3.7,0,10.66-8.64,19.3-19.3,19.3Z"/>
        <path class="cls-2" d="M56.2,253.2h0s0,0,0,0l-3.21-3.22-10.81,10.81h-8.85v-8.84l10.8-10.8-3.21-3.21s-.02-.01-.03-.01c-2.27-.73-4.7-1.12-7.21-1.12-13.06,0-23.68,10.62-23.68,23.68s10.62,23.67,23.68,23.67,23.68-10.62,23.68-23.67c0-2.54-.41-4.99-1.15-7.28ZM33.67,279.77c-10.66,0-19.3-8.64-19.3-19.29s8.64-19.3,19.3-19.3c1.24,0,2.45.11,3.62.34l-.34.33-8.19,8.2v15.29l15.3-.02,8.55-8.54c.24,1.19.36,2.43.36,3.7,0,10.65-8.64,19.29-19.3,19.29Z"/>
        <path class="cls-3" d="M209.09,257.87c-.49.77-.76,1.53-.76,2.43s.28,1.81.76,2.57l15.3,21.28h-6.4l-13.22-18.29c-1.18-1.6-1.74-3.48-1.74-5.56s.56-3.89,1.74-5.49l12.62-18.01h6.47l-14.77,21.07Z"/>
        <path class="cls-3" d="M278.21,274.22l-7.09,9.93h6.4l.69-.96,4.41-6.15v-8.99l-4.41,6.17ZM278.21,237.93l-.83-1.13h-6.46l7.29,9.97,4.41,6.04v-8.89l-4.41-5.99Z"/>
        <path class="cls-2" d="M270.55,253.2h0s-3.22-3.23-3.22-3.23l-1.98,1.99-8.83,8.82h-8.85v-8.84l10.8-10.8-3.2-3.21s-.02-.01-.03-.01c-2.28-.73-4.7-1.12-7.22-1.12-13.05,0-23.67,10.62-23.67,23.68s10.62,23.67,23.67,23.67,23.68-10.62,23.68-23.67c0-2.54-.4-4.99-1.15-7.28ZM248.02,279.77c-10.65,0-19.29-8.64-19.29-19.29s8.64-19.3,19.29-19.3c1.24,0,2.45.11,3.62.34l-8.53,8.53v15.29l15.3-.02,8.56-8.54c.23,1.19.35,2.43.35,3.7,0,10.65-8.64,19.29-19.3,19.29Z"/>
        <path class="cls-3" d="M102.3,197.65s-.01,0-.02,0h0s.01,0,.01,0Z"/>
      </g>
      <rect class="cls-1" width="4.41" height="568.3"/>
      <rect class="cls-1" x="278.21" width="4.41" height="568.3"/>
    </g>
  </g>
</svg>