<?xml version="1.0" encoding="UTF-8"?>
<svg id="Layer_2" data-name="Layer 2" xmlns="http://www.w3.org/2000/svg" viewBox="0 0 586.63 80.54">
  <defs>
    <style>
      .cls-1, .cls-2 {
        fill: none;
        stroke: #095297;
        stroke-width: 2px;
      }

      .cls-3 {
        fill: #fbad55;
        stroke-width: 0px;
      }

      .cls-2 {
        stroke-miterlimit: 10;
      }
    </style>
  </defs>
  <g id="Layer_1-2" data-name="Layer 1">
    <g>
      <path class="cls-1" d="M507.84,2.26c-.84-.84-1.98-1.26-3.43-1.26s-2.59.43-3.46,1.3c-.87.87-1.31,1.99-1.31,3.39,0,1.49.44,2.67,1.31,3.54.87.87,2.01,1.3,3.46,1.3,3.13,0,4.7-1.62,4.7-4.84,0-1.44-.42-2.59-1.27-3.43Z"/>
      <path class="cls-3" d="M424.78,33.42h0s0,0,0,0l-2.64-2.64-1.63,1.63-7.24,7.24h-7.26v-7.26l8.86-8.86-2.63-2.63s-.02,0-.02,0c-1.87-.6-3.85-.92-5.92-.92-10.71,0-19.42,8.71-19.42,19.42s8.71,19.42,19.42,19.42,19.42-8.71,19.42-19.42c0-2.08-.33-4.09-.94-5.97ZM406.3,55.22c-8.74,0-15.83-7.09-15.83-15.83s7.09-15.83,15.83-15.83c1.02,0,2.01.1,2.97.28l-.27.27-6.72,6.72v12.54l12.55-.02,7.02-7.01c.19.98.29,2,.29,3.04,0,8.74-7.09,15.83-15.83,15.83Z"/>
      <path class="cls-3" d="M169.31,45.44c-.43.67-.67,1.34-.67,2.14s.24,1.59.67,2.26l13.26,18.7h-5.68l-11.37-16.07c-1.04-1.41-1.53-3.06-1.53-4.89s.49-3.42,1.53-4.83l11.24-15.83h5.62l-13.08,18.52Z"/>
      <path class="cls-3" d="M194.8,31.38c.43.67.67,1.34.67,2.14s-.24,1.59-.67,2.26l-13.26,18.7h5.68l11.37-16.07c1.04-1.41,1.53-3.06,1.53-4.89s-.49-3.42-1.53-4.83l-11.24-15.83h-5.62l13.08,18.52Z"/>
      <g>
        <path class="cls-1" d="M34.28,72.89c-4.19,2.69-8.83,4.04-13.93,4.04-5.92,0-10.71-1.83-14.36-5.49-3.32-3.27-4.98-7.46-4.98-12.56,0-5.78,2.24-10.27,6.71-13.5-3.71-3.03-5.56-7.39-5.56-13.07,0-5.05,1.78-9.09,5.34-12.13,2.84-2.41,6.16-3.61,9.96-3.61,5.24,0,9.41,2.21,12.49,6.64v8.01c-3.42-4.14-7.29-6.21-11.62-6.21-2.21.05-3.96.76-5.23,2.13-1.28,1.37-1.91,3.19-1.91,5.45,0,2.65.83,4.73,2.49,6.24,1.66,1.52,3.93,2.27,6.82,2.27h12.92v8.73h-12.78c-3.42,0-6.08.79-7.98,2.38-1.9,1.59-2.85,3.8-2.85,6.64s1,5.1,3,6.78c2,1.68,4.7,2.53,8.12,2.53,4.67,0,9.12-1.3,13.35-3.9v8.59Z"/>
        <path class="cls-1" d="M128.02,57.7c-.85-.85-1.98-1.26-3.43-1.26s-2.6.43-3.46,1.3c-.87.87-1.3,1.99-1.3,3.39,0,1.49.43,2.67,1.3,3.54s2.02,1.3,3.46,1.3c3.12,0,4.69-1.62,4.69-4.84,0-1.44-.42-2.59-1.26-3.43Z"/>
        <path class="cls-2" d="M129.94,17.81v18.55c0,4.38-1.35,7.8-4.04,10.25-2.36,2.17-5.44,3.25-9.24,3.25h-43.75c-3.56,0-6.57-.98-9.02-2.96-1.79,1.98-4.33,2.96-7.65,2.96h-17.61l4.55-8.73h11.41c2.45,0,3.68-1.42,3.68-4.26,0-5.3-2.55-9.36-7.65-12.2l4.48-7.72c7.51,4.38,11.55,10.32,12.13,17.83.19,2.41.73,4.07,1.62,4.98.88.91,2.42,1.37,4.58,1.37h42.38c1.82,0,3.12-.4,3.9-1.19.77-.79,1.15-2.13,1.15-4.01v-13.35l9.1-4.76Z"/>
        <path class="cls-1" d="M142.93,49.86V8.14l9.1-4.84v46.56h-9.1Z"/>
      </g>
      <g>
        <path class="cls-1" d="M230.29,53.26c-2.7,0-4.05,1.34-4.05,4.04s1.35,4.11,4.05,4.11,4.03-1.37,4.03-4.11-1.34-4.04-4.03-4.04Z"/>
        <path class="cls-2" d="M291.35,21.85c-2.64-3.51-6.35-5.27-11.12-5.27-3.7,0-6.73,1.06-9.09,3.18-2.69,2.45-4.03,5.85-4.03,10.18v5.99c0,1.88-.39,3.21-1.16,4.01-.77.79-2.07,1.19-3.9,1.19h-6.86c-4.13,0-7.15-.55-9.02-1.66,1.02-.87,1.98-2.02,2.9-3.46v-3.61c-2.74-5.05-5.9-8.95-9.47-11.69-3.55-2.74-7.24-4.11-11.03-4.11-5.11,0-9.65,2.21-13.64,6.64v8.01c4.48-4.19,8.68-6.28,12.63-6.28,4.66,0,8.65,2.91,11.97,8.73-1.73,1.34-4.68,2.53-8.88,3.54-4.62,1.11-7.82,2.05-9.63,2.82-1.8.77-3.48,1.9-5.02,3.39-3.52,3.42-5.28,8.13-5.28,14.15s1.67,10.35,4.99,13.86c3.46,3.65,8.08,5.49,13.86,5.49,5.29,0,10.02-1.35,14.22-4.04v-8.59c-4.14,2.6-8.57,3.9-13.29,3.9-7.35,0-11.04-3.52-11.04-10.54,0-3.52,1.03-6.24,3.09-8.16,1.69-1.49,4.79-2.77,9.32-3.83,3.51-.82,5.94-1.47,7.29-1.95,2.02,2.26,4.21,3.85,6.6,4.76,2.38.91,5.5,1.37,9.34,1.37h7.8c3.28,0,6.07-.84,8.37-2.53,2.45,1.69,5.61,2.53,9.46,2.53s7.2-1.34,9.75-4.04c2.83-3.08,4.25-7.29,4.25-12.63,0-4.62-1.13-8.4-3.39-11.33ZM280.45,41.13c-2.83,0-4.25-1.34-4.25-4.04v-7.29c0-3.18,1.34-4.76,4.03-4.76,3.71,0,5.56,2.63,5.56,7.87s-1.78,8.23-5.34,8.23Z"/>
        <path class="cls-1" d="M373.99,57.7c-.85-.85-1.99-1.26-3.44-1.26s-2.6.43-3.46,1.3c-.87.87-1.29,1.99-1.29,3.39,0,1.49.42,2.67,1.29,3.54s2.02,1.3,3.46,1.3c3.13,0,4.69-1.62,4.69-4.84,0-1.44-.42-2.59-1.25-3.43Z"/>
        <path class="cls-2" d="M375.91,17.81v18.55c0,4.38-1.35,7.8-4.05,10.25-2.35,2.17-5.43,3.25-9.24,3.25h-38.71c-1.64,0-3.16-.22-4.55-.65-.63,4.62-2.48,8.27-5.57,10.97-2.79,2.41-6.13,3.61-10.03,3.61-3.03,0-5.98-.78-8.88-2.31v-7.94c2.51,1.39,4.96,2.09,7.37,2.09,2.64,0,4.7-.86,6.16-2.56,1.47-1.71,2.2-4.08,2.2-7.11v-23.39l5.92-3.1,3.1-1.66v.07l.07-.07v18.12c0,1.88.39,3.21,1.15,4.01.78.79,2.08,1.19,3.91,1.19h36.97c1.83,0,3.13-.4,3.9-1.19.78-.79,1.16-2.13,1.16-4.01v-13.35l9.1-4.76Z"/>
      </g>
      <path class="cls-1" d="M467.91,71.27c-.85-.84-1.99-1.26-3.44-1.26-3.18,0-4.76,1.56-4.76,4.69,0,1.49.43,2.67,1.3,3.54.87.87,2.02,1.3,3.46,1.3,3.13,0,4.69-1.62,4.69-4.84,0-1.44-.42-2.59-1.25-3.43Z"/>
      <path class="cls-1" d="M454.78,71.27c-.84-.84-1.98-1.26-3.43-1.26s-2.59.43-3.46,1.3c-.87.87-1.31,1.99-1.31,3.39s.44,2.61,1.31,3.5,2.01,1.34,3.46,1.34c3.13,0,4.7-1.62,4.7-4.84,0-1.44-.42-2.59-1.27-3.43Z"/>
      <path class="cls-1" d="M561.63,57.7c-.85-.85-1.98-1.26-3.43-1.26s-2.6.43-3.46,1.3c-.87.87-1.3,1.99-1.3,3.39,0,1.49.43,2.67,1.3,3.54s2.02,1.3,3.46,1.3c3.12,0,4.69-1.62,4.69-4.84,0-1.44-.42-2.59-1.26-3.43Z"/>
      <path class="cls-2" d="M563.54,17.82v18.55c0,4.38-1.35,7.8-4.04,10.25-2.36,2.17-5.44,3.25-9.24,3.25h-35.17c-3.51,0-6.42-.94-8.73-2.82-2.32,1.88-19.31,2.82-22.83,2.82h-3.89c-.59,4.43-3.09,7.89-7.52,10.39-3.99,2.21-8.97,3.32-14.94,3.32-7.99,0-14-2.29-18.05-6.86-2.98-3.42-4.48-7.61-4.48-12.56,0-3.8.89-7.12,2.67-9.96l8.66-1.8c-1.92,3.28-2.89,6.71-2.89,10.32,0,4.04,1.21,7.15,3.61,9.31,2.41,2.21,5.9,3.32,10.47,3.32,7.13,0,11.46-1.83,12.99-5.49h-6.93l4.56-8.73h14.86c1.83,0,17.22-.4,17.99-1.19.78-.79,1.16-2.13,1.16-4.01v-13.35l9.1-4.76v18.12c0,1.88.38,3.21,1.15,4.01.78.79,2.08,1.19,3.9,1.19h33.44c1.82,0,3.12-.4,3.9-1.19.77-.79,1.15-2.13,1.15-4.01v-13.35l9.1-4.76Z"/>
      <path class="cls-1" d="M576.53,49.87V8.15l9.1-4.84v46.56h-9.1Z"/>
    </g>
  </g>
</svg>